<svg width="100%" height="100%" viewBox="0 0 431.787 99.268" xmlns="http://www.w3.org/2000/svg">
  <!-- Vast Shadow font -->
  <g id="svgGroup" stroke-linecap="round" fill-rule="evenodd" font-size="9pt" stroke="#000000" stroke-width="0.25mm" fill="#000000" style="stroke:#000000;stroke-width:0.25mm;fill:#000000">
    <path d="M 49.805 26.367 L 49.805 22.022 L 60.303 22.022 L 60.303 37.158 L 50.293 37.158 Q 48.926 35.449 46.924 33.814 Q 44.922 32.178 42.407 30.908 Q 39.893 29.639 36.914 28.858 Q 33.936 28.076 30.615 28.076 Q 26.367 28.076 22.705 29.444 Q 19.043 30.811 16.357 33.252 Q 13.672 35.694 12.134 39.014 Q 10.596 42.334 10.596 46.24 Q 10.596 50.293 12.232 53.418 Q 13.867 56.543 16.748 58.667 Q 19.629 60.791 23.584 61.89 Q 27.539 62.988 32.178 62.988 Q 39.697 62.988 45.483 60.596 Q 51.27 58.203 55.811 53.223 L 60.986 59.131 Q 55.664 64.844 48.633 67.7 Q 41.602 70.557 32.422 70.557 Q 24.707 70.557 18.677 68.823 Q 12.647 67.09 8.496 63.916 Q 4.346 60.742 2.173 56.299 Q 0 51.856 0 46.436 Q 0 41.26 2.222 36.572 Q 4.443 31.885 8.472 28.32 Q 12.5 24.756 18.189 22.632 Q 23.877 20.508 30.762 20.508 Q 36.524 20.508 41.187 22.046 Q 45.85 23.584 49.805 26.367 Z M 61.035 63.867 L 62.451 65.137 Q 57.129 70.557 49.536 73.218 Q 41.943 75.879 32.373 75.879 Q 28.418 75.879 24.512 75.293 Q 20.606 74.707 17.188 73.56 Q 13.77 72.412 11.108 70.728 Q 8.447 69.043 6.982 66.846 Q 9.326 68.555 12.207 69.898 Q 15.088 71.24 18.384 72.144 Q 21.68 73.047 25.244 73.535 Q 28.809 74.024 32.471 74.024 Q 36.865 74.024 41.089 73.316 Q 45.313 72.608 49.024 71.289 Q 52.734 69.971 55.811 68.091 Q 58.887 66.211 61.035 63.867 Z M 14.111 46.24 Q 14.111 42.969 15.381 40.259 Q 16.65 37.549 18.872 35.596 Q 21.094 33.643 24.121 32.569 Q 27.149 31.494 30.664 31.494 Q 32.764 31.494 34.912 31.885 Q 37.061 32.276 38.965 32.984 Q 40.869 33.692 42.383 34.668 Q 43.897 35.645 44.775 36.817 Q 41.846 35.254 38.501 34.302 Q 35.156 33.35 30.859 33.35 Q 27.441 33.35 24.707 34.4 Q 21.973 35.449 20.044 37.207 Q 18.115 38.965 17.09 41.309 Q 16.065 43.653 16.065 46.24 Q 16.065 48.828 16.87 50.806 Q 17.676 52.783 19.19 54.37 Q 20.703 55.957 22.9 57.153 Q 25.098 58.35 27.881 59.326 Q 24.658 59.033 22.095 57.959 Q 19.531 56.885 17.774 55.2 Q 16.016 53.516 15.064 51.245 Q 14.111 48.975 14.111 46.24 Z M 52.686 42.432 L 52.686 40.576 L 63.818 40.576 L 63.818 24.072 L 65.772 24.072 L 65.772 42.432 L 52.686 42.432 Z" id="0" vector-effect="non-scaling-stroke"/>
    <path d="M 85.352 66.846 Q 90.088 70.264 95.825 72.119 Q 101.563 73.975 108.789 73.975 Q 115.527 73.975 121.729 72.144 Q 127.93 70.313 132.666 66.748 Q 137.402 63.184 140.234 57.984 Q 143.066 52.783 143.066 46.094 Q 143.066 42.822 142.163 39.478 Q 141.26 36.133 139.624 33.057 Q 137.988 29.981 135.645 27.32 Q 133.301 24.658 130.42 22.803 Q 133.691 24.268 136.401 26.66 Q 139.111 29.053 141.016 32.105 Q 142.92 35.156 143.97 38.721 Q 145.02 42.285 145.02 46.094 Q 145.02 50.879 143.652 54.956 Q 142.285 59.033 139.868 62.329 Q 137.451 65.625 134.107 68.164 Q 130.762 70.703 126.758 72.388 Q 122.754 74.072 118.237 74.951 Q 113.721 75.83 109.033 75.83 Q 105.127 75.83 101.563 75.22 Q 97.998 74.61 94.946 73.462 Q 91.895 72.315 89.453 70.654 Q 87.012 68.994 85.352 66.846 Z M 77.686 46.289 Q 77.686 51.026 79.858 55.396 Q 82.031 59.766 85.986 63.135 Q 89.941 66.504 95.483 68.53 Q 101.025 70.557 107.813 70.557 Q 114.99 70.557 120.825 68.726 Q 126.66 66.895 130.835 63.648 Q 135.01 60.401 137.28 55.908 Q 139.551 51.416 139.551 46.094 Q 139.551 40.576 137.476 35.889 Q 135.4 31.201 131.47 27.783 Q 127.539 24.365 121.851 22.437 Q 116.162 20.508 108.936 20.508 Q 102.051 20.508 96.289 22.534 Q 90.527 24.561 86.401 28.052 Q 82.275 31.543 79.981 36.255 Q 77.686 40.967 77.686 46.289 Z M 88.525 46.094 Q 88.525 42.285 89.966 39.014 Q 91.406 35.742 94.043 33.325 Q 96.68 30.908 100.415 29.517 Q 104.15 28.125 108.789 28.125 Q 113.232 28.125 116.919 29.566 Q 120.606 31.006 123.242 33.472 Q 125.879 35.938 127.344 39.185 Q 128.809 42.432 128.809 46.094 Q 128.809 49.805 127.344 52.905 Q 125.879 56.006 123.193 58.228 Q 120.508 60.449 116.797 61.695 Q 113.086 62.94 108.545 62.94 Q 104.053 62.94 100.366 61.719 Q 96.68 60.498 94.043 58.277 Q 91.406 56.055 89.966 52.954 Q 88.525 49.854 88.525 46.094 Z M 91.943 46.289 Q 91.943 43.213 93.164 40.503 Q 94.385 37.793 96.607 35.816 Q 98.828 33.838 101.929 32.691 Q 105.029 31.543 108.789 31.543 Q 111.182 31.543 113.428 32.056 Q 115.674 32.569 117.578 33.545 Q 119.482 34.522 120.947 35.913 Q 122.412 37.305 123.291 39.063 Q 120.068 36.133 116.577 34.766 Q 113.086 33.399 108.691 33.399 Q 105.518 33.399 102.832 34.424 Q 100.147 35.449 98.145 37.207 Q 96.143 38.965 95.02 41.309 Q 93.897 43.653 93.897 46.289 Q 93.897 48.487 94.434 50.391 Q 94.971 52.295 96.265 53.931 Q 97.559 55.567 99.707 56.885 Q 101.856 58.203 105.078 59.229 Q 102.149 59.033 99.732 57.984 Q 97.315 56.934 95.581 55.225 Q 93.848 53.516 92.896 51.221 Q 91.943 48.926 91.943 46.289 Z" id="1" vector-effect="non-scaling-stroke"/>
    <path d="M 158.301 69.092 L 158.301 61.768 L 169.043 61.768 L 169.043 30.274 L 158.301 30.274 L 158.301 21.973 L 179.541 21.973 L 179.541 29.346 Q 181.055 27.49 183.179 25.879 Q 185.303 24.268 187.94 23.071 Q 190.576 21.875 193.652 21.192 Q 196.729 20.508 200.098 20.508 Q 205.176 20.508 209.326 21.948 Q 213.477 23.389 216.406 26.392 Q 219.336 29.395 220.923 33.96 Q 222.51 38.526 222.51 44.776 L 222.51 61.768 L 233.252 61.768 L 233.252 69.092 L 203.711 69.092 L 203.711 61.768 L 212.012 61.768 L 212.012 48.926 Q 212.012 44.971 211.646 41.87 Q 211.279 38.77 210.596 37.012 Q 209.717 34.766 208.374 33.203 Q 207.031 31.641 205.347 30.664 Q 203.662 29.688 201.66 29.248 Q 199.658 28.809 197.412 28.809 Q 195.02 28.809 192.456 29.688 Q 189.893 30.567 187.476 32.153 Q 185.059 33.74 182.983 35.889 Q 180.908 38.037 179.541 40.528 L 179.541 61.768 L 187.842 61.768 L 187.842 69.092 L 158.301 69.092 Z M 183.057 58.838 L 183.057 41.748 Q 184.277 39.6 185.962 37.842 Q 187.647 36.084 189.624 34.839 Q 191.602 33.594 193.774 32.91 Q 195.947 32.227 198.096 32.227 Q 201.465 32.227 203.565 33.496 Q 205.664 34.766 206.641 36.719 Q 205.127 35.596 203.101 34.815 Q 201.074 34.033 197.998 34.033 Q 196.094 34.033 194.141 34.741 Q 192.188 35.449 190.43 36.621 Q 188.672 37.793 187.256 39.307 Q 185.84 40.82 185.01 42.383 L 185.01 58.838 L 183.057 58.838 Z M 226.025 58.838 L 226.025 45.117 Q 226.025 40.82 225.366 37.134 Q 224.707 33.447 223.389 30.493 Q 222.07 27.539 220.142 25.391 Q 218.213 23.242 215.674 21.973 Q 218.994 22.803 221.338 24.78 Q 223.682 26.758 225.147 29.785 Q 226.611 32.813 227.295 36.768 Q 227.979 40.723 227.979 45.459 L 227.979 58.838 L 226.025 58.838 Z M 206.641 72.51 L 236.768 72.51 L 236.768 64.502 L 238.721 64.502 L 238.721 74.365 L 206.641 74.365 L 206.641 72.51 Z M 161.231 72.51 L 191.357 72.51 L 191.357 64.502 L 193.311 64.502 L 193.311 74.365 L 161.231 74.365 L 161.231 72.51 Z M 161.231 35.547 L 161.231 33.692 L 166.992 33.692 L 166.992 35.547 L 161.231 35.547 Z" id="2" vector-effect="non-scaling-stroke"/>
    <path d="M 247.412 69.092 L 247.412 61.768 L 258.154 61.768 L 258.154 35.645 L 247.412 35.645 L 247.412 28.32 L 258.154 28.32 L 258.154 21.24 Q 258.154 16.553 259.692 12.647 Q 261.231 8.74 264.063 5.933 Q 266.895 3.125 270.947 1.563 Q 275 0 280.078 0 Q 284.522 0 287.94 1.099 Q 291.357 2.197 293.774 4.126 Q 296.191 6.055 297.656 8.692 Q 299.121 11.328 299.707 14.453 L 289.649 14.453 Q 289.209 13.428 288.525 12.427 Q 287.842 11.426 286.719 10.62 Q 285.596 9.815 283.984 9.302 Q 282.373 8.789 280.078 8.789 Q 277.881 8.789 275.806 9.497 Q 273.731 10.205 272.144 11.646 Q 270.557 13.086 269.605 15.283 Q 268.652 17.481 268.652 20.41 L 268.652 28.32 L 291.26 28.32 L 291.26 35.645 L 268.652 35.645 L 268.652 61.768 L 285.254 61.768 L 285.254 69.092 L 247.412 69.092 Z M 272.07 58.838 L 272.07 39.063 L 294.775 39.063 L 294.775 31.055 L 296.729 31.055 L 296.729 40.918 L 274.024 40.918 L 274.024 58.838 L 272.07 58.838 Z M 250.342 72.51 L 288.77 72.51 L 288.77 64.502 L 290.723 64.502 L 290.723 74.365 L 250.342 74.365 L 250.342 72.51 Z M 292.578 19.727 L 292.578 17.871 L 303.223 17.871 L 303.223 17.237 Q 303.223 14.942 302.734 12.818 Q 302.246 10.694 301.416 8.789 Q 300.586 6.885 299.487 5.274 Q 298.389 3.662 297.168 2.393 Q 299.121 3.369 300.635 5.127 Q 302.149 6.885 303.149 8.911 Q 304.15 10.938 304.663 12.94 Q 305.176 14.942 305.176 16.406 L 305.176 19.727 L 292.578 19.727 Z M 272.07 24.903 L 272.07 23.828 Q 272.07 20.362 272.754 18.067 Q 273.438 15.772 274.609 14.429 Q 275.781 13.086 277.319 12.549 Q 278.857 12.012 280.566 12.012 Q 281.787 12.012 282.788 12.305 Q 283.789 12.598 284.522 13.037 Q 285.254 13.477 285.742 13.989 Q 286.231 14.502 286.475 14.99 Q 284.668 14.063 282.959 13.892 Q 281.25 13.721 280.469 13.721 Q 279.248 13.721 278.101 14.112 Q 276.953 14.502 276.05 15.601 Q 275.147 16.699 274.585 18.677 Q 274.024 20.654 274.024 23.877 L 274.024 24.903 L 272.07 24.903 Z M 250.342 40.918 L 250.342 39.063 L 256.201 39.063 L 256.201 40.918 L 250.342 40.918 Z" id="3" vector-effect="non-scaling-stroke"/>
    <path d="M 310.303 69.092 L 310.303 61.768 L 323.486 61.768 L 322.022 30.274 L 310.303 30.274 L 310.303 21.973 L 332.52 21.973 L 332.52 61.768 L 343.75 61.768 L 343.75 69.092 L 310.303 69.092 Z M 313.232 72.51 L 347.266 72.51 L 347.266 64.502 L 349.219 64.502 L 349.219 74.365 L 313.232 74.365 L 313.232 72.51 Z M 335.938 58.838 L 335.938 24.463 L 337.891 24.463 L 337.891 58.838 L 335.938 58.838 Z M 323.486 15.088 L 323.486 13.233 L 336.035 13.233 L 336.035 2.783 L 337.988 2.783 L 337.988 15.088 L 323.486 15.088 Z M 320.557 9.815 L 320.557 0.049 L 332.52 0.049 L 332.52 9.815 L 320.557 9.815 Z M 313.232 35.547 L 313.232 33.692 L 319.971 33.692 L 319.971 35.547 L 313.232 35.547 Z" id="4" vector-effect="non-scaling-stroke"/>
    <path d="M 357.471 84.033 L 362.94 77.637 Q 365.332 80.127 368.286 81.812 Q 371.24 83.496 374.292 84.522 Q 377.344 85.547 380.274 85.987 Q 383.203 86.426 385.547 86.426 Q 390.137 86.426 393.799 85.571 Q 397.461 84.717 400.024 82.471 Q 402.588 80.225 403.955 76.319 Q 405.322 72.412 405.322 66.26 L 405.322 61.865 Q 403.467 63.623 401.123 65.039 Q 398.779 66.455 396.094 67.481 Q 393.408 68.506 390.454 69.043 Q 387.5 69.58 384.473 69.58 Q 377.637 69.58 372.339 67.871 Q 367.041 66.162 363.428 63.013 Q 359.815 59.863 357.935 55.371 Q 356.055 50.879 356.055 45.313 Q 356.055 42.285 356.934 39.282 Q 357.813 36.279 359.546 33.521 Q 361.279 30.762 363.843 28.394 Q 366.406 26.026 369.727 24.268 Q 373.047 22.51 377.149 21.509 Q 381.25 20.508 386.035 20.508 Q 388.281 20.508 390.845 20.923 Q 393.408 21.338 395.947 22.217 Q 398.486 23.096 400.903 24.487 Q 403.32 25.879 405.322 27.832 L 405.322 21.973 L 426.318 21.973 L 426.318 30.274 L 415.576 30.274 L 415.576 66.26 Q 415.576 74.121 413.379 79.444 Q 411.182 84.766 407.227 87.988 Q 403.272 91.211 397.827 92.603 Q 392.383 93.994 385.889 93.994 Q 382.08 93.994 378.076 93.408 Q 374.072 92.822 370.288 91.626 Q 366.504 90.43 363.184 88.55 Q 359.863 86.67 357.471 84.033 Z M 419.092 66.016 L 419.092 33.692 L 429.834 33.692 L 429.834 24.707 L 431.787 24.707 L 431.787 35.547 L 421.045 35.547 L 421.045 66.016 Q 421.045 72.363 419.775 77.295 Q 418.506 82.227 416.211 85.938 Q 413.916 89.649 410.693 92.188 Q 407.471 94.727 403.565 96.289 Q 399.658 97.852 395.166 98.56 Q 390.674 99.268 385.889 99.268 Q 382.178 99.268 378.32 98.682 Q 374.463 98.096 371.021 96.997 Q 367.578 95.899 364.771 94.336 Q 361.963 92.774 360.352 90.82 Q 362.793 92.578 365.869 93.848 Q 368.945 95.117 372.315 95.899 Q 375.684 96.68 379.15 97.046 Q 382.617 97.412 385.889 97.412 Q 390.332 97.412 394.531 96.753 Q 398.731 96.094 402.417 94.629 Q 406.104 93.164 409.18 90.772 Q 412.256 88.379 414.453 84.888 Q 416.65 81.397 417.871 76.734 Q 419.092 72.07 419.092 66.016 Z M 366.65 44.922 Q 366.65 41.211 368.213 38.111 Q 369.775 35.01 372.412 32.764 Q 375.049 30.518 378.54 29.297 Q 382.031 28.076 385.938 28.076 Q 389.941 28.076 393.482 29.37 Q 397.022 30.664 399.658 32.91 Q 402.295 35.156 403.809 38.184 Q 405.322 41.211 405.322 44.678 Q 405.322 49.512 403.565 52.832 Q 401.807 56.153 398.95 58.203 Q 396.094 60.254 392.505 61.157 Q 388.916 62.061 385.303 62.061 Q 380.762 62.061 377.271 60.791 Q 373.779 59.522 371.411 57.251 Q 369.043 54.981 367.847 51.831 Q 366.65 48.682 366.65 44.922 Z M 370.068 45.02 Q 370.068 42.237 371.24 39.771 Q 372.412 37.305 374.512 35.474 Q 376.611 33.643 379.541 32.569 Q 382.471 31.494 385.938 31.494 Q 390.576 31.494 393.628 32.984 Q 396.68 34.473 398.438 36.768 Q 397.266 36.035 396.021 35.401 Q 394.775 34.766 393.286 34.302 Q 391.797 33.838 389.99 33.57 Q 388.184 33.301 385.938 33.301 Q 382.861 33.301 380.322 34.253 Q 377.783 35.205 375.952 36.817 Q 374.121 38.428 373.12 40.503 Q 372.119 42.578 372.119 44.824 Q 372.119 49.61 374.39 53.003 Q 376.66 56.397 381.934 58.496 Q 379.395 58.252 377.222 57.178 Q 375.049 56.104 373.462 54.346 Q 371.875 52.588 370.972 50.22 Q 370.068 47.852 370.068 45.02 Z M 403.027 68.018 L 402.734 70.459 Q 399.072 72.656 394.409 73.755 Q 389.746 74.854 384.57 74.854 Q 376.66 74.854 370.85 72.632 Q 365.039 70.41 361.963 66.016 Q 363.965 67.627 366.577 68.921 Q 369.19 70.215 372.144 71.118 Q 375.098 72.022 378.247 72.51 Q 381.397 72.998 384.522 72.998 Q 389.941 72.998 394.653 71.704 Q 399.365 70.41 403.027 68.018 Z" id="5" vector-effect="non-scaling-stroke"/>
  </g>
</svg>